<svg width="200" height="99" viewBox="0 0 200 99" fill="none" xmlns="http://www.w3.org/2000/svg">
<path d="M33.1601 98.3562C14.8463 98.3562 0 83.5099 0 65.1961V0H47.3515C56.5314 0 64.4467 1.49876 71.0974 4.49628C77.8419 7.4938 83.0407 11.8027 86.6939 17.4231C90.3472 22.9498 92.1738 29.5069 92.1738 37.0943C92.1738 44.6818 90.3472 51.2389 86.6939 56.7656C83.0407 62.2922 77.8419 66.6012 71.0974 69.6924C64.4467 72.6899 56.5314 74.1887 47.3515 74.1887H18.4067L33.1601 59.9973V98.3562ZM33.1601 63.6505L18.4067 48.616H45.2438C49.8338 48.616 53.206 47.5857 55.3605 45.5249C57.6086 43.4641 58.7327 40.6539 58.7327 37.0943C58.7327 33.5348 57.6086 30.7246 55.3605 28.6638C53.206 26.603 49.8338 25.5726 45.2438 25.5726H18.4067L33.1601 10.5382V63.6505Z" fill="#61C9A8"/>
<path d="M103.049 98.3562V0H130.308L180.329 59.8568H167.683V0C185.531 0 200 14.4688 200 32.317V98.3562H172.741L122.72 38.4994H135.366V98.3562H103.049Z" fill="#61C9A8"/>
</svg>
